<?xml version="1.0" encoding="UTF-8"?>
<!DOCTYPE svg PUBLIC "-//W3C//DTD SVG 1.1//EN" "http://www.w3.org/Graphics/SVG/1.1/DTD/svg11.dtd">
<!-- Creator: CorelDRAW 2019 (64-Bit) -->
<svg xmlns="http://www.w3.org/2000/svg" xml:space="preserve" width="24px" height="48px" version="1.1" shape-rendering="geometricPrecision" text-rendering="geometricPrecision" image-rendering="optimizeQuality" fill-rule="evenodd" clip-rule="evenodd"
viewBox="0 0 24 48"
 xmlns:xlink="http://www.w3.org/1999/xlink"
 xmlns:xodm="http://www.corel.com/coreldraw/odm/2003">
 <g id="layer1">
  <metadata id="CorelCorpID_0Corel-Layer"/>
  <rect fill="none" width="24" height="48"/>
  <path fill="none" stroke="#555555" stroke-width="1.5" stroke-linecap="round" stroke-linejoin="round" stroke-miterlimit="22.9256" d="M13.975 14.975l-4.95 -4.95m4.95 0l-4.95 4.95m2.475 4.025c3.59,0 6.5,-2.91 6.5,-6.5 0,-3.59 -2.91,-6.5 -6.5,-6.5 -3.59,0 -6.5,2.91 -6.5,6.5 0,3.59 2.91,6.5 6.5,6.5z"/>
  <path fill="none" stroke="#EE0000" stroke-width="1.5" stroke-linecap="round" stroke-linejoin="round" stroke-miterlimit="22.9256" d="M13.975 38.975l-4.95 -4.95m4.95 0l-4.95 4.95m2.475 4.025c3.59,0 6.5,-2.91 6.5,-6.5 0,-3.59 -2.91,-6.5 -6.5,-6.5 -3.59,0 -6.5,2.91 -6.5,6.5 0,3.59 2.91,6.5 6.5,6.5z"/>
 </g>
</svg>
